<svg xmlns="http://www.w3.org/2000/svg" xmlns:xlink="http://www.w3.org/1999/xlink" width="600" zoomAndPan="magnify" viewBox="0 0 450 60" height="80" preserveAspectRatio="xMidYMid meet" version="1.0"><defs><g/><clipPath id="54e808115c"><path d="M 291.890625 18 L 324 18 L 324 42 L 291.890625 42 Z M 291.890625 18 " clip-rule="nonzero"/></clipPath></defs><g fill="#ffffff" fill-opacity="1"><g transform="translate(131.344126, 44.000003)"><g><path d="M 18.71875 -6.039062 C 18.71875 -4.199219 15.800781 -2.679688 12.238281 -2.679688 C 10.160156 -2.679688 7.917969 -3.199219 5.917969 -4.398438 L 4.839844 -2.761719 C 6.519531 -1.519531 9.519531 -0.800781 12.558594 -0.800781 C 17.398438 -0.800781 22.359375 -2.640625 22.359375 -7.160156 C 22.359375 -7.917969 22.238281 -8.800781 21.917969 -9.71875 L 10 -16.277344 C 7.71875 -17.558594 6.480469 -19.519531 6.480469 -21.4375 C 6.480469 -24.398438 9.398438 -26.519531 14.839844 -26.519531 C 17.078125 -26.519531 19.558594 -26.117188 21.957031 -25.117188 L 22.839844 -26.878906 C 20.71875 -27.878906 17.839844 -28.4375 14.878906 -28.4375 C 7.160156 -28.4375 1.480469 -24.757812 1.480469 -20.039062 C 1.480469 -17.558594 3.199219 -14.917969 7.160156 -12.679688 L 18.71875 -6.199219 Z M 18.71875 -6.039062 "/></g></g></g><g fill="#ffffff" fill-opacity="1"><g transform="translate(156.261655, 44.000003)"><g><path d="M 18.558594 -9.4375 L 18.558594 -11.238281 L 7.558594 -11.238281 L 7.558594 -27.796875 L 3.238281 -27.796875 L 3.238281 -1.398438 L 7.558594 -1.398438 L 7.558594 -9.4375 Z M 26.757812 -1.398438 L 26.757812 -27.796875 L 22.4375 -27.796875 L 22.4375 -1.398438 Z M 26.757812 -1.398438 "/></g></g></g><g fill="#ffffff" fill-opacity="1"><g transform="translate(186.258678, 44.000003)"><g><path d="M 16.078125 -1.039062 C 24.917969 -1.039062 29 -7.121094 29 -13.960938 C 29 -20.359375 25.359375 -28.160156 16.4375 -28.160156 C 9.199219 -28.160156 2 -22.359375 2 -14 C 2 -6.679688 8 -1.039062 16.078125 -1.039062 Z M 16.917969 -3.039062 C 11.558594 -3.039062 6.878906 -7.917969 6.878906 -14.359375 C 6.878906 -21.117188 12.039062 -25.160156 16.679688 -25.160156 C 23.199219 -25.160156 25.597656 -17.597656 25.597656 -12.800781 C 25.597656 -6.679688 21.71875 -3.039062 16.917969 -3.039062 Z M 16.917969 -3.039062 "/></g></g></g><g fill="#ffffff" fill-opacity="1"><g transform="translate(216.975627, 44.000003)"><g><path d="M 10.160156 -12.558594 C 10.160156 -6.917969 8.238281 -2.558594 0.960938 -0.121094 C 1.878906 0.320312 3.039062 0.558594 4.320312 0.558594 C 8.800781 0.558594 14.480469 -2.640625 14.480469 -12.359375 L 14.480469 -27.796875 L 10.160156 -27.796875 Z M 10.160156 -12.558594 "/></g></g></g><g fill="#ffffff" fill-opacity="1"><g transform="translate(233.973936, 44.000003)"><g><path d="M 7.519531 -1.398438 L 7.519531 -27.796875 L 3.28125 -27.796875 L 3.28125 -1.398438 Z M 7.519531 -1.398438 "/></g></g></g><g fill="#ffffff" fill-opacity="1"><g transform="translate(244.772867, 44.000003)"><g><path d="M 27.238281 -0.480469 L 27.238281 -27.796875 L 25 -27.796875 L 25 -8.71875 L 5.800781 -27.117188 L 3.238281 -27.117188 L 3.238281 -1.398438 L 5.480469 -1.398438 L 5.480469 -20.558594 Z M 27.238281 -0.480469 "/></g></g></g><g clip-path="url(#54e808115c)"><path fill="#000000" d="M 297.636719 35.59375 C 297.855469 35.695312 298.078125 35.578125 298.261719 35.457031 C 300.480469 33.929688 302.542969 32.191406 304.652344 30.523438 C 307.066406 28.582031 309.492188 26.652344 312.015625 24.855469 C 313.644531 23.613281 315.300781 22.40625 317.019531 21.285156 C 317.546875 20.929688 318.078125 20.582031 318.585938 20.203125 C 318.773438 20.0625 318.957031 19.917969 319.136719 19.769531 C 319.203125 19.722656 319.25 19.65625 319.261719 19.578125 C 319.273438 19.53125 319.269531 19.488281 319.253906 19.445312 C 319.320312 19.265625 319.3125 19.050781 319.226562 18.851562 C 318.980469 18.230469 318.261719 18.007812 317.648438 18.179688 C 317.28125 18.277344 316.964844 18.5 316.660156 18.71875 C 316.230469 19.035156 315.804688 19.359375 315.378906 19.679688 C 313.378906 21.191406 311.417969 22.753906 309.542969 24.417969 C 308.054688 25.734375 306.511719 27.105469 304.839844 28.480469 C 303.015625 30 301.125 31.4375 299.339844 33 C 298.722656 33.558594 298.0625 34.082031 297.457031 34.644531 C 297.441406 34.664062 297.433594 34.683594 297.425781 34.703125 C 297.34375 34.726562 297.273438 34.789062 297.238281 34.894531 C 297.226562 34.9375 297.222656 34.980469 297.226562 35.023438 C 297.222656 35.019531 297.222656 35.015625 297.222656 35.007812 C 297.222656 34.988281 297.222656 34.953125 297.226562 34.933594 C 297.226562 34.9375 297.222656 35.007812 297.222656 35.011719 C 297.222656 35.019531 297.226562 35.027344 297.226562 35.035156 C 297.25 35.265625 297.453125 35.492188 297.636719 35.59375 Z M 318.699219 19.125 C 318.703125 19.160156 318.707031 19.191406 318.707031 19.222656 C 318.707031 19.226562 318.707031 19.226562 318.707031 19.226562 C 318.691406 19.230469 318.679688 19.230469 318.664062 19.230469 C 318.648438 19.230469 318.632812 19.226562 318.617188 19.226562 C 318.601562 19.222656 318.582031 19.21875 318.566406 19.214844 C 318.535156 19.203125 318.507812 19.1875 318.480469 19.171875 C 318.316406 19.046875 318.210938 18.894531 318.164062 18.71875 C 318.429688 18.746094 318.625 18.886719 318.699219 19.125 Z M 301.007812 32.351562 C 302.851562 30.84375 304.71875 29.371094 306.53125 27.832031 C 308.140625 26.464844 309.535156 25.1875 311.019531 23.910156 C 312.617188 22.554688 314.261719 21.257812 315.9375 19.996094 C 316.3125 19.714844 316.683594 19.429688 317.0625 19.15625 C 317.304688 18.992188 317.425781 18.898438 317.582031 18.828125 C 317.597656 18.890625 317.621094 18.957031 317.644531 19.019531 C 317.757812 19.304688 317.972656 19.574219 318.25 19.714844 C 318.03125 19.878906 317.808594 20.039062 317.582031 20.191406 C 316.65625 20.824219 315.710938 21.441406 314.789062 22.082031 C 313.78125 22.78125 312.804688 23.527344 311.820312 24.265625 C 309.90625 25.648438 308.019531 27.070312 306.179688 28.550781 C 303.617188 30.554688 301.144531 32.671875 298.496094 34.566406 C 298.363281 34.664062 298.230469 34.761719 298.09375 34.859375 C 299.066406 34.023438 300.019531 33.167969 301.007812 32.351562 Z M 314.023438 32.042969 C 316.382812 31.292969 318.707031 30.402344 321.011719 29.449219 C 321.5 29.246094 321.992188 29.046875 322.480469 28.835938 C 322.824219 28.683594 323.175781 28.523438 323.457031 28.242188 C 323.929688 27.777344 324.144531 26.980469 323.78125 26.386719 C 323.667969 26.191406 323.503906 26.054688 323.324219 26.007812 C 323.296875 25.972656 323.265625 25.941406 323.222656 25.921875 C 323.152344 25.890625 323.074219 25.890625 323 25.925781 C 322.785156 26.003906 322.566406 26.089844 322.351562 26.179688 C 321.769531 26.425781 321.203125 26.710938 320.628906 26.988281 C 318.789062 27.914062 316.917969 28.730469 315.027344 29.5 C 312.207031 30.773438 309.335938 31.875 306.460938 32.960938 C 303.96875 33.921875 301.449219 34.800781 299.011719 35.949219 C 298.816406 36.046875 298.597656 36.183594 298.558594 36.445312 C 298.539062 36.675781 298.609375 37 298.78125 37.152344 C 298.785156 37.160156 298.792969 37.167969 298.800781 37.171875 C 298.800781 37.171875 298.859375 37.210938 298.863281 37.214844 C 298.84375 37.203125 298.816406 37.183594 298.800781 37.171875 C 298.796875 37.167969 298.792969 37.164062 298.789062 37.160156 C 298.824219 37.1875 298.859375 37.210938 298.898438 37.226562 C 299.003906 37.253906 299.089844 37.226562 299.15625 37.164062 C 299.175781 37.167969 299.199219 37.171875 299.21875 37.171875 C 300.003906 36.945312 300.78125 36.640625 301.566406 36.402344 C 303.796875 35.675781 305.980469 34.777344 308.195312 33.988281 C 310.210938 33.257812 312.152344 32.640625 314.023438 32.042969 Z M 323.132812 26.78125 C 323.136719 26.765625 323.140625 26.746094 323.148438 26.726562 C 323.15625 26.710938 323.164062 26.695312 323.171875 26.683594 C 323.179688 26.667969 323.1875 26.65625 323.195312 26.644531 C 323.195312 26.644531 323.199219 26.644531 323.199219 26.644531 C 323.222656 26.664062 323.25 26.6875 323.269531 26.710938 C 323.425781 26.917969 323.429688 27.183594 323.304688 27.445312 C 323.1875 27.296875 323.125 27.109375 323.117188 26.886719 C 323.117188 26.851562 323.125 26.816406 323.132812 26.78125 Z M 299.398438 36.460938 C 299.546875 36.390625 299.699219 36.324219 299.851562 36.257812 C 302.816406 34.929688 305.867188 33.894531 308.875 32.714844 C 311.066406 31.886719 313.238281 30.984375 315.394531 30.03125 C 316.523438 29.5625 317.652344 29.097656 318.769531 28.582031 C 319.785156 28.105469 320.796875 27.597656 321.8125 27.113281 C 322.058594 26.996094 322.304688 26.882812 322.554688 26.777344 C 322.519531 27.117188 322.613281 27.472656 322.78125 27.75 C 322.816406 27.808594 322.859375 27.867188 322.902344 27.921875 C 322.757812 28.023438 322.617188 28.082031 322.351562 28.207031 C 321.925781 28.394531 321.492188 28.570312 321.0625 28.75 C 319.136719 29.550781 317.199219 30.308594 315.242188 30.980469 C 313.40625 31.601562 311.617188 32.132812 309.644531 32.8125 C 307.417969 33.578125 305.214844 34.433594 303 35.246094 C 301.804688 35.675781 300.597656 36.050781 299.398438 36.460938 Z M 297.539062 41.714844 C 297.527344 41.605469 297.582031 41.484375 297.597656 41.371094 C 297.632812 41.222656 297.664062 41.070312 297.703125 40.925781 C 297.832031 40.433594 297.953125 39.941406 298.066406 39.449219 C 298.117188 39.210938 298.441406 39.109375 298.546875 39.300781 C 298.632812 39.4375 298.53125 39.625 298.507812 39.785156 C 298.425781 40.203125 298.300781 40.613281 298.203125 41.027344 C 298.167969 41.167969 298.136719 41.308594 298.105469 41.445312 C 298.070312 41.5625 298.070312 41.695312 297.988281 41.796875 C 297.84375 41.984375 297.550781 41.9375 297.539062 41.714844 Z M 295.226562 41.03125 C 295.683594 40.453125 296.148438 39.882812 296.59375 39.296875 C 296.769531 39.035156 297.136719 39.171875 297.050781 39.46875 C 297.039062 39.542969 296.976562 39.601562 296.929688 39.664062 C 296.835938 39.789062 296.742188 39.914062 296.644531 40.039062 C 296.308594 40.464844 295.96875 40.882812 295.636719 41.308594 C 295.410156 41.621094 295.011719 41.355469 295.226562 41.03125 Z M 295.832031 34.757812 C 295.328125 34.710938 294.839844 34.570312 294.34375 34.464844 C 293.644531 34.308594 292.945312 34.140625 292.25 33.964844 C 291.988281 33.941406 291.894531 33.59375 292.101562 33.441406 C 292.1875 33.375 292.296875 33.367188 292.398438 33.402344 C 292.625 33.457031 292.851562 33.515625 293.082031 33.570312 C 293.664062 33.710938 294.25 33.84375 294.835938 33.976562 C 295.1875 34.050781 295.542969 34.144531 295.902344 34.171875 C 296.289062 34.230469 296.222656 34.792969 295.832031 34.757812 Z M 297.269531 33.042969 C 297.171875 32.964844 297.066406 32.898438 296.964844 32.828125 C 296.398438 32.433594 295.847656 32.015625 295.285156 31.613281 C 295.121094 31.496094 294.957031 31.378906 294.792969 31.261719 C 294.75 31.230469 294.722656 31.1875 294.703125 31.140625 C 294.625 30.96875 294.746094 30.757812 294.933594 30.734375 C 295.042969 30.71875 295.136719 30.777344 295.21875 30.839844 C 295.378906 30.957031 295.542969 31.074219 295.703125 31.1875 C 296.359375 31.671875 297.027344 32.144531 297.6875 32.621094 C 297.9375 32.808594 297.734375 33.226562 297.433594 33.136719 C 297.367188 33.128906 297.320312 33.082031 297.269531 33.042969 Z M 302.902344 39.863281 C 303.003906 39.996094 303.167969 40.113281 303.144531 40.296875 C 303.128906 40.496094 302.875 40.628906 302.707031 40.515625 C 302.628906 40.480469 302.589844 40.398438 302.53125 40.339844 C 302.398438 40.179688 302.261719 40.023438 302.121094 39.871094 C 301.816406 39.523438 301.671875 39.457031 301.347656 39.042969 C 301.152344 38.792969 301.457031 38.441406 301.730469 38.609375 C 301.851562 38.683594 301.921875 38.847656 302.035156 38.941406 C 302.109375 39.007812 302.667969 39.578125 302.902344 39.863281 Z M 302.902344 39.863281 " fill-opacity="1" fill-rule="nonzero"/></g></svg>